<svg
	xmlns="http://www.w3.org/2000/svg"
	viewBox="0 0 512 512"
	role="img"
	aria-labelledby="title"
>
	<title>Skillpath</title>
	<rect width="512" height="512" rx="96" fill="#e11d48" />
	<path
		fill="#ffffff"
		transform="translate(8 -30)"
		d="M256 116c-77.2 0-128 40.4-128 101.4 0 55.5 39.2 84.8 113.8 100.4 49.3 10.3 66.2 22.1 66.2 42.4 0 23.1-20.7 36.8-55.5 36.8-39.8 0-72.1-15.4-102.3-45.8l-38.7 46.6C147.6 436.1 195.8 456 251.8 456c78.3 0 132.2-39.9 132.2-102.4 0-56.8-37.1-85.9-114.7-102.2-49.8-10.5-65.3-20.8-65.3-40.2 0-21.5 19.2-35.2 51.4-35.2 33.8 0 62.6 12.1 89.5 37.2l36.1-48.1C347.9 132.5 306.3 116 256 116Z"
	/>
</svg>
